custom-analysis
version=1
nRows=4
nColumns=98
inDegrees=no

This file contains tibia displacement and acting force.

Units are S.I. units (seconds, meters, Newtons, ...)
Angles are in degrees.

endheader
time	APT	SIT	knee_angle	aACL_R_force	pACL_R_force	aPCL_R_force	pPCL_R_force	aMCL_R_force	mMCL_R_force	pMCL_R_force	aLCL_R_force	mLCL_R_force	pLCL_R_force	aPCL_L_force	pPCL_L_force	aMCL_L_force	aLCL_L_force	aACL_R_length	pACL_R_length	aPCL_R_length	pPCL_R_length	aMCL_R_length	mMCL_R_length	pMCL_R_length	aLCL_R_length	mLCL_R_length	pLCL_R_length	aPCL_L_length	pPCL_L_length	aMCL_L_length	aLCL_L_length	aACL_R_strain	pACL_R_strain	aPCL_R_strain	pPCL_R_strain	aMCL_R_strain	mMCL_R_strain	pMCL_R_strain	aLCL_R_strain	mLCL_R_strain	pLCL_R_strain	aPCL_L_strain	pPCL_L_strain	aMCL_L_strain	aLCL_L_strain	femur_lat_meniscii_r.femur_lat_r.force.X	femur_lat_meniscii_r.femur_lat_r.force.Y	femur_lat_meniscii_r.femur_lat_r.force.Z	femur_lat_meniscii_r.femur_lat_r.torque.X	femur_lat_meniscii_r.femur_lat_r.torque.Y	femur_lat_meniscii_r.femur_lat_r.torque.Z	femur_lat_meniscii_r.meniscus_lat_r.force.X	femur_lat_meniscii_r.meniscus_lat_r.force.Y	femur_lat_meniscii_r.meniscus_lat_r.force.Z	femur_lat_meniscii_r.meniscus_lat_r.torque.X	femur_lat_meniscii_r.meniscus_lat_r.torque.Y	femur_lat_meniscii_r.meniscus_lat_r.torque.Z	femur_med_meniscii_r.femur_med_r.force.X	femur_med_meniscii_r.femur_med_r.force.Y	femur_med_meniscii_r.femur_med_r.force.Z	femur_med_meniscii_r.femur_med_r.torque.X	femur_med_meniscii_r.femur_med_r.torque.Y	femur_med_meniscii_r.femur_med_r.torque.Z	femur_med_meniscii_r.meniscus_med_r.force.X	femur_med_meniscii_r.meniscus_med_r.force.Y	femur_med_meniscii_r.meniscus_med_r.force.Z	femur_med_meniscii_r.meniscus_med_r.torque.X	femur_med_meniscii_r.meniscus_med_r.torque.Y	femur_med_meniscii_r.meniscus_med_r.torque.Z	femur_med_tibia_r.tibia_upper_r.force.X	femur_med_tibia_r.tibia_upper_r.force.Y	femur_med_tibia_r.tibia_upper_r.force.Z	femur_med_tibia_r.tibia_upper_r.torque.X	femur_med_tibia_r.tibia_upper_r.torque.Y	femur_med_tibia_r.tibia_upper_r.torque.Z	femur_med_tibia_r.femur_med_r.force.X	femur_med_tibia_r.femur_med_r.force.Y	femur_med_tibia_r.femur_med_r.force.Z	femur_med_tibia_r.femur_med_r.torque.X	femur_med_tibia_r.femur_med_r.torque.Y	femur_med_tibia_r.femur_med_r.torque.Z	femur_lat_tibia_r.tibia_upper_r.force.X	femur_lat_tibia_r.tibia_upper_r.force.Y	femur_lat_tibia_r.tibia_upper_r.force.Z	femur_lat_tibia_r.tibia_upper_r.torque.X	femur_lat_tibia_r.tibia_upper_r.torque.Y	femur_lat_tibia_r.tibia_upper_r.torque.Z	femur_lat_tibia_r.femur_lat_r.force.X	femur_lat_tibia_r.femur_lat_r.force.Y	femur_lat_tibia_r.femur_lat_r.force.Z	femur_lat_tibia_r.femur_lat_r.torque.X	femur_lat_tibia_r.femur_lat_r.torque.Y	femur_lat_tibia_r.femur_lat_r.torque.Z	femur_lat_meniscii_force_r	femur_med_meniscii_force_r	femur_lat_tibia_force_r	femur_med_tibia_force_r
      0.20998931	      0.01357442	      0.02616908	     81.38353596	     -2.56727735	      0.00000000	    972.09809914	    632.23991411	     34.01066268	     22.84704295	      0.00000000	      0.00000000	      0.00000000	      0.00000000	      0.00000000	      0.00000000	      0.00000001	      0.00000000	      0.03103911	      0.02442054	      0.03716011	      0.03393788	      0.06145650	      0.05989277	      0.05653903	      0.05020146	      0.04476256	      0.03975899	      0.01525851	      0.01651186	      0.06550154	      0.04489616	      0.00108394	     -0.02546652	      0.19503944	      0.13550945	      0.02381422	      0.00166024	     -0.03727301	     -0.10318031	     -0.20519046	     -0.24040996	      0.00000079	     -0.32847694	      0.00000060	     -0.00000086	    160.18420016	    121.13395539	     16.61129441	     -9.42585771	      3.78693599	     63.30903413	   -160.18420016	   -121.13395539	    -16.61129441	      3.17592295	     -4.63741920	      3.16159540	      0.03394421	      0.00218358	     -0.02182072	      0.00870142	     -0.00053291	      0.01348204	     -0.03394421	     -0.00218358	      0.02182072	     -0.00008897	      0.00104038	     -0.00003377	   -866.52796740	   -380.69989140	    292.63882236	     -8.17010858	     20.99054289	      3.28998738	    866.52796740	    380.69989140	   -292.63882236	    124.54899243	    -15.21115592	    348.83612095	   -259.62798094	   -125.78247027	    -74.56243501	      4.03801711	     -9.08675040	      1.26859636	    259.62798094	    125.78247027	     74.56243501	    -33.13470103	      6.41547496	    104.55296001	    201.51513152	      0.04041190	    297.97227225	    990.67684234
      0.21002080	      0.01357234	      0.02617462	     81.40045388	     -2.63771874	      0.00000000	    972.72769967	    633.23515842	     34.23767849	     23.14181555	      0.00000000	      0.00000000	      0.00000000	      0.00000000	      0.00000000	      0.00000000	      0.00000001	      0.00000000	      0.03103890	      0.02442141	      0.03716224	      0.03393981	      0.06145781	      0.05989377	      0.05654034	      0.05020015	      0.04476105	      0.03975786	      0.01525851	      0.01651186	      0.06550154	      0.04489616	      0.00107711	     -0.02543194	      0.19510801	      0.13557397	      0.02383615	      0.00167693	     -0.03725067	     -0.10320363	     -0.20521720	     -0.24043160	      0.00000079	     -0.32847694	      0.00000060	     -0.00000086	    158.72614319	    121.07102328	     16.74094730	     -9.47709357	      3.75431263	     62.71840834	   -158.72614319	   -121.07102328	    -16.74094730	      3.17586256	     -4.60483759	      3.17655002	      0.03272736	      0.00214890	     -0.02104655	      0.00839305	     -0.00051389	      0.01299823	     -0.03272736	     -0.00214890	      0.02104655	     -0.00008593	      0.00100341	     -0.00003070	   -863.58963150	   -380.11046158	    291.86421181	     -8.14923494	     20.92634934	      3.31482212	    863.58963150	    380.11046158	   -291.86421181	    124.22297946	    -15.16059635	    347.64189387	   -259.09106799	   -125.83374612	    -74.49394919	      4.03748591	     -9.07182844	      1.28173637	    259.09106799	    125.83374612	     74.49394919	    -33.10733623	      6.40337278	    104.33114120	    200.33082770	      0.03896993	    297.50909505	    987.65162521
      0.21011809	      0.01356588	      0.02619172	     81.45271843	     -2.48237664	      0.00000000	    973.52824649	    633.16630920	     33.77005513	     22.61398752	      0.00000000	      0.00000000	      0.00000000	      0.00000000	      0.00000000	      0.00000000	      0.00000001	      0.00000000	      0.03103825	      0.02442411	      0.03716882	      0.03394575	      0.06146186	      0.05989684	      0.05654438	      0.05019611	      0.04475640	      0.03975436	      0.01525851	      0.01651186	      0.06550154	      0.04489616	      0.00105638	     -0.02532432	      0.19531940	      0.13577282	      0.02390361	      0.00172824	     -0.03718188	     -0.10327584	     -0.20529990	     -0.24049850	      0.00000079	     -0.32847694	      0.00000060	     -0.00000086	    160.05666947	    121.55286866	     15.68387285	     -9.06148523	      3.77456748	     63.24840884	   -160.05666947	   -121.55286866	    -15.68387285	      3.17844514	     -4.60022522	      3.18804347	      0.03067088	      0.00201162	     -0.01968159	      0.00784847	     -0.00048124	      0.01218113	     -0.03067088	     -0.00201162	      0.01968159	     -0.00007977	      0.00093892	     -0.00002796	   -856.83194888	   -375.43128504	    291.12235726	     -8.07491009	     20.81772134	      3.25095782	    856.83194888	    375.43128504	   -291.12235726	    123.85012438	    -15.05509350	    344.93038500	   -258.24961247	   -124.80432794	    -73.72479444	      3.99977698	     -9.02251814	      1.26255851	    258.24961247	    124.80432794	     73.72479444	    -32.76974128	      6.37586483	    103.99573322	    201.59171905	      0.03649814	    296.14916500	    979.72540301
      0.21034300	      0.01355134	      0.02623164	     81.57360842	     -2.10093083	      0.00000000	    974.63102216	    631.18949354	     31.87269298	     20.46390300	      0.00000000	      0.00000000	      0.00000000	      0.00000000	      0.00000000	      0.00000000	      0.00000001	      0.00000000	      0.03103694	      0.02443044	      0.03718340	      0.03395886	      0.06147083	      0.05990349	      0.05655326	      0.05018633	      0.04474519	      0.03974579	      0.01525851	      0.01651186	      0.06550154	      0.04489616	      0.00101416	     -0.02507164	      0.19578856	      0.13621140	      0.02405303	      0.00183957	     -0.03703067	     -0.10345046	     -0.20549892	     -0.24066226	      0.00000079	     -0.32847694	      0.00000060	     -0.00000086	    166.76211336	    122.74169459	     13.18331953	     -8.07775562	      3.90467916	     65.94080351	   -166.76211336	   -122.74169459	    -13.18331953	      3.18428440	     -4.68044169	      3.18169695	      0.02701810	      0.00173703	     -0.01782389	      0.00710646	     -0.00042787	      0.01073051	     -0.02701810	     -0.00173703	      0.01782389	     -0.00007053	      0.00084440	     -0.00002461	   -844.73533667	   -365.43983546	    290.22819751	     -7.92439445	     20.63646170	      3.08910960	    844.73533667	    365.43983546	   -290.22819751	    123.33549904	    -14.86779394	    340.08891424	   -256.94626041	   -122.51939401	    -71.95876220	      3.91551695	     -8.92399710	      1.21269975	    256.94626041	    122.51939401	     71.95876220	    -31.99663720	      6.32571909	    103.48168427	    207.48235095	      0.03241428	    293.61615436	    965.06811625
